<?xml version="1.0" encoding="UTF-8" standalone="no"?>
<svg
   xmlns:dc="http://purl.org/dc/elements/1.1/"
   xmlns:cc="http://creativecommons.org/ns#"
   xmlns:rdf="http://www.w3.org/1999/02/22-rdf-syntax-ns#"
   xmlns:svg="http://www.w3.org/2000/svg"
   xmlns="http://www.w3.org/2000/svg"
   xmlns:sodipodi="http://sodipodi.sourceforge.net/DTD/sodipodi-0.dtd"
   xmlns:inkscape="http://www.inkscape.org/namespaces/inkscape"
   version="1.1"
   viewBox="210 243 476.22074 136.22982"
   width="126.00008mm"
   height="36.044136mm"
   id="svg142"
   sodipodi:docname="Troop349-Dice.svg"
   inkscape:version="0.92.2 5c3e80d, 2017-08-06">
  <sodipodi:namedview
     pagecolor="#ffffff"
     bordercolor="#666666"
     borderopacity="1"
     objecttolerance="10"
     gridtolerance="10"
     guidetolerance="10"
     inkscape:pageopacity="0"
     inkscape:pageshadow="2"
     inkscape:window-width="1252"
     inkscape:window-height="718"
     id="namedview144"
     showgrid="true"
     units="mm"
     inkscape:document-units="mm"
     fit-margin-top="5"
     fit-margin-left="5"
     fit-margin-right="5"
     fit-margin-bottom="5"
     inkscape:zoom="2"
     inkscape:cx="210.77716"
     inkscape:cy="70.904015"
     inkscape:window-x="0"
     inkscape:window-y="0"
     inkscape:window-maximized="0"
     inkscape:current-layer="layer5">
    <inkscape:grid
       type="xygrid"
       id="grid4413"
       originx="4.7533568e-07"
       originy="-26.456694" />
  </sodipodi:namedview>
  <defs
     id="defs2" />
  <metadata
     id="metadata4"> Produced by OmniGraffle 7.10.2 
    <dc:date>2019-03-26 23:38:56 +0000</dc:date>
<rdf:RDF>
  <cc:Work
     rdf:about="">
    <dc:format>image/svg+xml</dc:format>
    <dc:type
       rdf:resource="http://purl.org/dc/dcmitype/StillImage" />
    <dc:title></dc:title>
  </cc:Work>
</rdf:RDF>
</metadata>
  <g
     inkscape:groupmode="layer"
     id="layer8"
     inkscape:label="Side 6"
     transform="translate(1.0331581e-6,142.45044)"
     style="display:none">
    <text
       xml:space="preserve"
       style="font-size:24px;line-height:125%;font-family:sans-serif;-inkscape-font-specification:'sans-serif, Normal';letter-spacing:0px;word-spacing:0px;fill:#000000;stroke-width:1px"
       x="649.17273"
       y="143.01495"
       id="text1269-82"><tspan
         sodipodi:role="line"
         id="tspan1267-3"
         x="649.17273"
         y="143.01495">6</tspan></text>
  </g>
  <g
     inkscape:groupmode="layer"
     id="layer7"
     inkscape:label="Side 5"
     transform="translate(1.0331581e-6,142.45044)"
     style="display:none">
    <text
       xml:space="preserve"
       style="font-size:24px;line-height:125%;font-family:sans-serif;-inkscape-font-specification:'sans-serif, Normal';letter-spacing:0px;word-spacing:0px;fill:#000000;stroke-width:1px"
       x="634.18182"
       y="143.01495"
       id="text1269-8"><tspan
         sodipodi:role="line"
         id="tspan1267-95"
         x="634.18182"
         y="143.01495">5</tspan></text>
  </g>
  <g
     inkscape:groupmode="layer"
     id="layer6"
     inkscape:label="Side 4"
     transform="translate(1.0331581e-6,142.45044)"
     style="display:none">
    <text
       xml:space="preserve"
       style="font-size:24px;line-height:125%;font-family:sans-serif;-inkscape-font-specification:'sans-serif, Normal';letter-spacing:0px;word-spacing:0px;fill:#000000;stroke-width:1px"
       x="618.95062"
       y="143.3548"
       id="text1269-4"><tspan
         sodipodi:role="line"
         id="tspan1267-0"
         x="618.95062"
         y="143.3548">4</tspan></text>
  </g>
  <g
     inkscape:groupmode="layer"
     id="layer5"
     inkscape:label="Side 3"
     transform="translate(1.0331581e-6,142.45044)"
     style="display:none">
    <text
       xml:space="preserve"
       style="font-size:24px;line-height:125%;font-family:sans-serif;-inkscape-font-specification:'sans-serif, Normal';letter-spacing:0px;word-spacing:0px;fill:#000000;stroke-width:1px"
       x="603.71362"
       y="143.01495"
       id="text1269-1"><tspan
         sodipodi:role="line"
         id="tspan1267-8"
         x="603.71362"
         y="143.01495">3</tspan></text>
    <g
       transform="translate(-1.3927684e-6)"
       aria-label="9"
       style="font-style:normal;font-weight:normal;font-size:40px;line-height:125%;font-family:sans-serif;letter-spacing:0px;word-spacing:0px;display:inline;fill:#000000;fill-opacity:1;stroke:none;stroke-width:1px;stroke-linecap:butt;stroke-linejoin:miter;stroke-opacity:1"
       id="text5026">
      <path
         d="m 264.11438,207.64551 h -10 q -4.14063,0 -7.07031,-2.92969 -2.92969,-2.92969 -2.92969,-7.07031 0,-1.01563 0.74219,-1.75781 0.74218,-0.74219 1.75781,-0.74219 1.05469,0 1.75781,0.74219 0.74219,0.74218 0.74219,1.75781 0,2.07031 1.44531,3.55469 1.48438,1.44531 3.55469,1.44531 h 10 q 2.07031,0 3.55469,-1.44531 1.48437,-1.48438 1.48437,-3.55469 v -6.36719 q -2.34375,1.36719 -5.03906,1.36719 h -10 q -4.14063,0 -7.07031,-2.92969 -2.92969,-2.92969 -2.92969,-7.07031 v -5 q 0,-4.14063 2.92969,-7.07031 2.92968,-2.92969 7.07031,-2.92969 h 10 q 4.17969,0 7.10937,2.92969 2.92969,2.92968 2.92969,7.07031 v 20 q 0,4.14062 -2.92969,7.07031 -2.92968,2.92969 -7.10937,2.92969 z m 5.03906,-30 q 0,-2.07031 -1.48437,-3.51563 -1.44532,-1.48437 -3.55469,-1.48437 h -10 q -2.07031,0 -3.55469,1.48437 -1.44531,1.44532 -1.44531,3.51563 v 5 q 0,2.07031 1.44531,3.55469 1.48438,1.44531 3.55469,1.44531 h 10 q 2.07031,0 3.55469,-1.44531 1.48437,-1.48438 1.48437,-3.55469 z"
         style="font-style:normal;font-variant:normal;font-weight:normal;font-stretch:normal;font-size:40px;font-family:WebHostingHub-Glyphs;-inkscape-font-specification:'WebHostingHub-Glyphs, Normal';font-variant-ligatures:normal;font-variant-caps:normal;font-variant-numeric:normal;font-feature-settings:normal;text-align:start;writing-mode:lr-tb;text-anchor:start"
         id="path5028"
         inkscape:connector-curvature="0" />
    </g>
    <g
       transform="translate(75.590639,-7.7017219e-4)"
       aria-label="9"
       style="font-style:normal;font-weight:normal;font-size:40px;line-height:125%;font-family:sans-serif;letter-spacing:0px;word-spacing:0px;display:inline;fill:#000000;fill-opacity:1;stroke:none;stroke-width:1px;stroke-linecap:butt;stroke-linejoin:miter;stroke-opacity:1"
       id="text5026-1">
      <path
         inkscape:connector-curvature="0"
         d="m 264.11438,207.64551 h -10 q -4.14063,0 -7.07031,-2.92969 -2.92969,-2.92969 -2.92969,-7.07031 0,-1.01563 0.74219,-1.75781 0.74218,-0.74219 1.75781,-0.74219 1.05469,0 1.75781,0.74219 0.74219,0.74218 0.74219,1.75781 0,2.07031 1.44531,3.55469 1.48438,1.44531 3.55469,1.44531 h 10 q 2.07031,0 3.55469,-1.44531 1.48437,-1.48438 1.48437,-3.55469 v -6.36719 q -2.34375,1.36719 -5.03906,1.36719 h -10 q -4.14063,0 -7.07031,-2.92969 -2.92969,-2.92969 -2.92969,-7.07031 v -5 q 0,-4.14063 2.92969,-7.07031 2.92968,-2.92969 7.07031,-2.92969 h 10 q 4.17969,0 7.10937,2.92969 2.92969,2.92968 2.92969,7.07031 v 20 q 0,4.14062 -2.92969,7.07031 -2.92968,2.92969 -7.10937,2.92969 z m 5.03906,-30 q 0,-2.07031 -1.48437,-3.51563 -1.44532,-1.48437 -3.55469,-1.48437 h -10 q -2.07031,0 -3.55469,1.48437 -1.44531,1.44532 -1.44531,3.51563 v 5 q 0,2.07031 1.44531,3.55469 1.48438,1.44531 3.55469,1.44531 h 10 q 2.07031,0 3.55469,-1.44531 1.48437,-1.48438 1.48437,-3.55469 z"
         style="font-style:normal;font-variant:normal;font-weight:normal;font-stretch:normal;font-size:40px;font-family:WebHostingHub-Glyphs;-inkscape-font-specification:'WebHostingHub-Glyphs, Normal';font-variant-ligatures:normal;font-variant-caps:normal;font-variant-numeric:normal;font-feature-settings:normal;text-align:start;writing-mode:lr-tb;text-anchor:start"
         id="path5028-3" />
    </g>
    <g
       transform="translate(151.18105,-7.9017219e-4)"
       aria-label="9"
       style="font-style:normal;font-weight:normal;font-size:40px;line-height:125%;font-family:sans-serif;letter-spacing:0px;word-spacing:0px;display:inline;fill:#000000;fill-opacity:1;stroke:none;stroke-width:1px;stroke-linecap:butt;stroke-linejoin:miter;stroke-opacity:1"
       id="text5026-4">
      <path
         inkscape:connector-curvature="0"
         d="m 264.11438,207.64551 h -10 q -4.14063,0 -7.07031,-2.92969 -2.92969,-2.92969 -2.92969,-7.07031 0,-1.01563 0.74219,-1.75781 0.74218,-0.74219 1.75781,-0.74219 1.05469,0 1.75781,0.74219 0.74219,0.74218 0.74219,1.75781 0,2.07031 1.44531,3.55469 1.48438,1.44531 3.55469,1.44531 h 10 q 2.07031,0 3.55469,-1.44531 1.48437,-1.48438 1.48437,-3.55469 v -6.36719 q -2.34375,1.36719 -5.03906,1.36719 h -10 q -4.14063,0 -7.07031,-2.92969 -2.92969,-2.92969 -2.92969,-7.07031 v -5 q 0,-4.14063 2.92969,-7.07031 2.92968,-2.92969 7.07031,-2.92969 h 10 q 4.17969,0 7.10937,2.92969 2.92969,2.92968 2.92969,7.07031 v 20 q 0,4.14062 -2.92969,7.07031 -2.92968,2.92969 -7.10937,2.92969 z m 5.03906,-30 q 0,-2.07031 -1.48437,-3.51563 -1.44532,-1.48437 -3.55469,-1.48437 h -10 q -2.07031,0 -3.55469,1.48437 -1.44531,1.44532 -1.44531,3.51563 v 5 q 0,2.07031 1.44531,3.55469 1.48438,1.44531 3.55469,1.44531 h 10 q 2.07031,0 3.55469,-1.44531 1.48437,-1.48438 1.48437,-3.55469 z"
         style="font-style:normal;font-variant:normal;font-weight:normal;font-stretch:normal;font-size:40px;font-family:WebHostingHub-Glyphs;-inkscape-font-specification:'WebHostingHub-Glyphs, Normal';font-variant-ligatures:normal;font-variant-caps:normal;font-variant-numeric:normal;font-feature-settings:normal;text-align:start;writing-mode:lr-tb;text-anchor:start"
         id="path5028-32" />
    </g>
    <g
       transform="translate(226.77174,-7.7017219e-4)"
       aria-label="9"
       style="font-style:normal;font-weight:normal;font-size:40px;line-height:125%;font-family:sans-serif;letter-spacing:0px;word-spacing:0px;display:inline;fill:#000000;fill-opacity:1;stroke:none;stroke-width:1px;stroke-linecap:butt;stroke-linejoin:miter;stroke-opacity:1"
       id="text5026-2">
      <path
         inkscape:connector-curvature="0"
         d="m 264.11438,207.64551 h -10 q -4.14063,0 -7.07031,-2.92969 -2.92969,-2.92969 -2.92969,-7.07031 0,-1.01563 0.74219,-1.75781 0.74218,-0.74219 1.75781,-0.74219 1.05469,0 1.75781,0.74219 0.74219,0.74218 0.74219,1.75781 0,2.07031 1.44531,3.55469 1.48438,1.44531 3.55469,1.44531 h 10 q 2.07031,0 3.55469,-1.44531 1.48437,-1.48438 1.48437,-3.55469 v -6.36719 q -2.34375,1.36719 -5.03906,1.36719 h -10 q -4.14063,0 -7.07031,-2.92969 -2.92969,-2.92969 -2.92969,-7.07031 v -5 q 0,-4.14063 2.92969,-7.07031 2.92968,-2.92969 7.07031,-2.92969 h 10 q 4.17969,0 7.10937,2.92969 2.92969,2.92968 2.92969,7.07031 v 20 q 0,4.14062 -2.92969,7.07031 -2.92968,2.92969 -7.10937,2.92969 z m 5.03906,-30 q 0,-2.07031 -1.48437,-3.51563 -1.44532,-1.48437 -3.55469,-1.48437 h -10 q -2.07031,0 -3.55469,1.48437 -1.44531,1.44532 -1.44531,3.51563 v 5 q 0,2.07031 1.44531,3.55469 1.48438,1.44531 3.55469,1.44531 h 10 q 2.07031,0 3.55469,-1.44531 1.48437,-1.48438 1.48437,-3.55469 z"
         style="font-style:normal;font-variant:normal;font-weight:normal;font-stretch:normal;font-size:40px;font-family:WebHostingHub-Glyphs;-inkscape-font-specification:'WebHostingHub-Glyphs, Normal';font-variant-ligatures:normal;font-variant-caps:normal;font-variant-numeric:normal;font-feature-settings:normal;text-align:start;writing-mode:lr-tb;text-anchor:start"
         id="path5028-1" />
    </g>
    <g
       transform="translate(302.3623,-7.7017219e-4)"
       aria-label="9"
       style="font-style:normal;font-weight:normal;font-size:40px;line-height:125%;font-family:sans-serif;letter-spacing:0px;word-spacing:0px;display:inline;fill:#000000;fill-opacity:1;stroke:none;stroke-width:1px;stroke-linecap:butt;stroke-linejoin:miter;stroke-opacity:1"
       id="text5026-11">
      <path
         inkscape:connector-curvature="0"
         d="m 264.11438,207.64551 h -10 q -4.14063,0 -7.07031,-2.92969 -2.92969,-2.92969 -2.92969,-7.07031 0,-1.01563 0.74219,-1.75781 0.74218,-0.74219 1.75781,-0.74219 1.05469,0 1.75781,0.74219 0.74219,0.74218 0.74219,1.75781 0,2.07031 1.44531,3.55469 1.48438,1.44531 3.55469,1.44531 h 10 q 2.07031,0 3.55469,-1.44531 1.48437,-1.48438 1.48437,-3.55469 v -6.36719 q -2.34375,1.36719 -5.03906,1.36719 h -10 q -4.14063,0 -7.07031,-2.92969 -2.92969,-2.92969 -2.92969,-7.07031 v -5 q 0,-4.14063 2.92969,-7.07031 2.92968,-2.92969 7.07031,-2.92969 h 10 q 4.17969,0 7.10937,2.92969 2.92969,2.92968 2.92969,7.07031 v 20 q 0,4.14062 -2.92969,7.07031 -2.92968,2.92969 -7.10937,2.92969 z m 5.03906,-30 q 0,-2.07031 -1.48437,-3.51563 -1.44532,-1.48437 -3.55469,-1.48437 h -10 q -2.07031,0 -3.55469,1.48437 -1.44531,1.44532 -1.44531,3.51563 v 5 q 0,2.07031 1.44531,3.55469 1.48438,1.44531 3.55469,1.44531 h 10 q 2.07031,0 3.55469,-1.44531 1.48437,-1.48438 1.48437,-3.55469 z"
         style="font-style:normal;font-variant:normal;font-weight:normal;font-stretch:normal;font-size:40px;font-family:WebHostingHub-Glyphs;-inkscape-font-specification:'WebHostingHub-Glyphs, Normal';font-variant-ligatures:normal;font-variant-caps:normal;font-variant-numeric:normal;font-feature-settings:normal;text-align:start;writing-mode:lr-tb;text-anchor:start"
         id="path5028-2" />
    </g>
    <g
       transform="translate(377.95285,-7.7017219e-4)"
       aria-label="9"
       style="font-style:normal;font-weight:normal;font-size:40px;line-height:125%;font-family:sans-serif;letter-spacing:0px;word-spacing:0px;display:inline;fill:#000000;fill-opacity:1;stroke:none;stroke-width:1px;stroke-linecap:butt;stroke-linejoin:miter;stroke-opacity:1"
       id="text5026-3">
      <path
         inkscape:connector-curvature="0"
         d="m 264.11438,207.64551 h -10 q -4.14063,0 -7.07031,-2.92969 -2.92969,-2.92969 -2.92969,-7.07031 0,-1.01563 0.74219,-1.75781 0.74218,-0.74219 1.75781,-0.74219 1.05469,0 1.75781,0.74219 0.74219,0.74218 0.74219,1.75781 0,2.07031 1.44531,3.55469 1.48438,1.44531 3.55469,1.44531 h 10 q 2.07031,0 3.55469,-1.44531 1.48437,-1.48438 1.48437,-3.55469 v -6.36719 q -2.34375,1.36719 -5.03906,1.36719 h -10 q -4.14063,0 -7.07031,-2.92969 -2.92969,-2.92969 -2.92969,-7.07031 v -5 q 0,-4.14063 2.92969,-7.07031 2.92968,-2.92969 7.07031,-2.92969 h 10 q 4.17969,0 7.10937,2.92969 2.92969,2.92968 2.92969,7.07031 v 20 q 0,4.14062 -2.92969,7.07031 -2.92968,2.92969 -7.10937,2.92969 z m 5.03906,-30 q 0,-2.07031 -1.48437,-3.51563 -1.44532,-1.48437 -3.55469,-1.48437 h -10 q -2.07031,0 -3.55469,1.48437 -1.44531,1.44532 -1.44531,3.51563 v 5 q 0,2.07031 1.44531,3.55469 1.48438,1.44531 3.55469,1.44531 h 10 q 2.07031,0 3.55469,-1.44531 1.48437,-1.48438 1.48437,-3.55469 z"
         style="font-style:normal;font-variant:normal;font-weight:normal;font-stretch:normal;font-size:40px;font-family:WebHostingHub-Glyphs;-inkscape-font-specification:'WebHostingHub-Glyphs, Normal';font-variant-ligatures:normal;font-variant-caps:normal;font-variant-numeric:normal;font-feature-settings:normal;text-align:start;writing-mode:lr-tb;text-anchor:start"
         id="path5028-30" />
    </g>
  </g>
  <g
     inkscape:groupmode="layer"
     id="layer4"
     inkscape:label="Side 2"
     transform="translate(1.0331581e-6,142.45044)"
     style="display:none">
    <text
       xml:space="preserve"
       style="font-size:24px;line-height:125%;font-family:sans-serif;-inkscape-font-specification:'sans-serif, Normal';letter-spacing:0px;word-spacing:0px;fill:#000000;stroke-width:1px"
       x="588.79303"
       y="143.3548"
       id="text1269-5"><tspan
         sodipodi:role="line"
         id="tspan1267-9"
         x="588.79303"
         y="143.3548">2</tspan></text>
    <g
       aria-label="4"
       style="font-style:normal;font-weight:normal;font-size:40px;line-height:125%;font-family:sans-serif;letter-spacing:0px;word-spacing:0px;fill:#000000;fill-opacity:1;stroke:none;stroke-width:1px;stroke-linecap:butt;stroke-linejoin:miter;stroke-opacity:1"
       id="text4953">
      <path
         d="m 273.39172,206.90332 q -0.74218,0.74219 -1.79687,0.74219 -1.01563,0 -1.75781,-0.70313 -0.70313,-0.74218 -0.70313,-1.79687 v -13.86719 q -2.34375,1.36719 -5,1.36719 h -10 q -4.14062,0 -7.07031,-2.92969 -2.92969,-2.92969 -2.92969,-7.07031 v -12.5 q 0,-1.01563 0.70313,-1.75781 0.74218,-0.74219 1.75781,-0.74219 1.05469,0 1.79687,0.74219 0.74219,0.74218 0.74219,1.75781 v 12.5 q 0,2.07031 1.44531,3.55469 1.48438,1.44531 3.55469,1.44531 h 10 q 2.07031,0 3.51563,-1.44531 1.48437,-1.48438 1.48437,-3.55469 v -12.5 q 0,-1.01563 0.70313,-1.75781 0.74218,-0.74219 1.75781,-0.74219 1.05469,0 1.79687,0.74219 0.74219,0.74218 0.74219,1.75781 v 35 q 0,1.01562 -0.74219,1.75781 z"
         style="font-style:normal;font-variant:normal;font-weight:normal;font-stretch:normal;font-size:40px;font-family:WebHostingHub-Glyphs;-inkscape-font-specification:'WebHostingHub-Glyphs, Normal';font-variant-ligatures:normal;font-variant-caps:normal;font-variant-numeric:normal;font-feature-settings:normal;text-align:start;writing-mode:lr-tb;text-anchor:start"
         id="path4955"
         inkscape:connector-curvature="0" />
    </g>
    <path
       inkscape:connector-curvature="0"
       d="m 348.98236,206.90255 q -0.74218,0.74219 -1.79687,0.74219 -1.01563,0 -1.75781,-0.70313 -0.70313,-0.74218 -0.70313,-1.79687 v -13.86719 q -2.34375,1.36719 -5,1.36719 h -10 q -4.14062,0 -7.07031,-2.92969 -2.92969,-2.92969 -2.92969,-7.07031 v -12.5 q 0,-1.01563 0.70313,-1.75781 0.74218,-0.74219 1.75781,-0.74219 1.05469,0 1.79687,0.74219 0.74219,0.74218 0.74219,1.75781 v 12.5 q 0,2.07031 1.44531,3.55469 1.48438,1.44531 3.55469,1.44531 h 10 q 2.07031,0 3.51563,-1.44531 1.48437,-1.48438 1.48437,-3.55469 v -12.5 q 0,-1.01563 0.70313,-1.75781 0.74218,-0.74219 1.75781,-0.74219 1.05469,0 1.79687,0.74219 0.74219,0.74218 0.74219,1.75781 v 35 q 0,1.01562 -0.74219,1.75781 z"
       style="font-style:normal;font-variant:normal;font-weight:normal;font-stretch:normal;font-size:40px;line-height:125%;font-family:WebHostingHub-Glyphs;-inkscape-font-specification:'WebHostingHub-Glyphs, Normal';font-variant-ligatures:normal;font-variant-caps:normal;font-variant-numeric:normal;font-feature-settings:normal;text-align:start;letter-spacing:0px;word-spacing:0px;writing-mode:lr-tb;text-anchor:start;display:inline;fill:#000000;fill-opacity:1;stroke:none;stroke-width:1px;stroke-linecap:butt;stroke-linejoin:miter;stroke-opacity:1"
       id="path4955-7" />
    <path
       inkscape:connector-curvature="0"
       d="m 424.57277,206.90253 q -0.74218,0.74219 -1.79687,0.74219 -1.01563,0 -1.75781,-0.70313 -0.70313,-0.74218 -0.70313,-1.79687 v -13.86719 q -2.34375,1.36719 -5,1.36719 h -10 q -4.14062,0 -7.07031,-2.92969 -2.92969,-2.92969 -2.92969,-7.07031 v -12.5 q 0,-1.01563 0.70313,-1.75781 0.74218,-0.74219 1.75781,-0.74219 1.05469,0 1.79687,0.74219 0.74219,0.74218 0.74219,1.75781 v 12.5 q 0,2.07031 1.44531,3.55469 1.48438,1.44531 3.55469,1.44531 h 10 q 2.07031,0 3.51563,-1.44531 1.48437,-1.48438 1.48437,-3.55469 v -12.5 q 0,-1.01563 0.70313,-1.75781 0.74218,-0.74219 1.75781,-0.74219 1.05469,0 1.79687,0.74219 0.74219,0.74218 0.74219,1.75781 v 35 q 0,1.01562 -0.74219,1.75781 z"
       style="font-style:normal;font-variant:normal;font-weight:normal;font-stretch:normal;font-size:40px;line-height:125%;font-family:WebHostingHub-Glyphs;-inkscape-font-specification:'WebHostingHub-Glyphs, Normal';font-variant-ligatures:normal;font-variant-caps:normal;font-variant-numeric:normal;font-feature-settings:normal;text-align:start;letter-spacing:0px;word-spacing:0px;writing-mode:lr-tb;text-anchor:start;display:inline;fill:#000000;fill-opacity:1;stroke:none;stroke-width:1px;stroke-linecap:butt;stroke-linejoin:miter;stroke-opacity:1"
       id="path4955-6" />
    <path
       inkscape:connector-curvature="0"
       d="m 500.16346,206.90255 q -0.74218,0.74219 -1.79687,0.74219 -1.01563,0 -1.75781,-0.70313 -0.70313,-0.74218 -0.70313,-1.79687 v -13.86719 q -2.34375,1.36719 -5,1.36719 h -10 q -4.14062,0 -7.07031,-2.92969 -2.92969,-2.92969 -2.92969,-7.07031 v -12.5 q 0,-1.01563 0.70313,-1.75781 0.74218,-0.74219 1.75781,-0.74219 1.05469,0 1.79687,0.74219 0.74219,0.74218 0.74219,1.75781 v 12.5 q 0,2.07031 1.44531,3.55469 1.48438,1.44531 3.55469,1.44531 h 10 q 2.07031,0 3.51563,-1.44531 1.48437,-1.48438 1.48437,-3.55469 v -12.5 q 0,-1.01563 0.70313,-1.75781 0.74218,-0.74219 1.75781,-0.74219 1.05469,0 1.79687,0.74219 0.74219,0.74218 0.74219,1.75781 v 35 q 0,1.01562 -0.74219,1.75781 z"
       style="font-style:normal;font-variant:normal;font-weight:normal;font-stretch:normal;font-size:40px;line-height:125%;font-family:WebHostingHub-Glyphs;-inkscape-font-specification:'WebHostingHub-Glyphs, Normal';font-variant-ligatures:normal;font-variant-caps:normal;font-variant-numeric:normal;font-feature-settings:normal;text-align:start;letter-spacing:0px;word-spacing:0px;writing-mode:lr-tb;text-anchor:start;display:inline;fill:#000000;fill-opacity:1;stroke:none;stroke-width:1px;stroke-linecap:butt;stroke-linejoin:miter;stroke-opacity:1"
       id="path4955-2" />
    <path
       inkscape:connector-curvature="0"
       d="m 575.75402,206.90255 q -0.74218,0.74219 -1.79687,0.74219 -1.01563,0 -1.75781,-0.70313 -0.70313,-0.74218 -0.70313,-1.79687 v -13.86719 q -2.34375,1.36719 -5,1.36719 h -10 q -4.14062,0 -7.07031,-2.92969 -2.92969,-2.92969 -2.92969,-7.07031 v -12.5 q 0,-1.01563 0.70313,-1.75781 0.74218,-0.74219 1.75781,-0.74219 1.05469,0 1.79687,0.74219 0.74219,0.74218 0.74219,1.75781 v 12.5 q 0,2.07031 1.44531,3.55469 1.48438,1.44531 3.55469,1.44531 h 10 q 2.07031,0 3.51563,-1.44531 1.48437,-1.48438 1.48437,-3.55469 v -12.5 q 0,-1.01563 0.70313,-1.75781 0.74218,-0.74219 1.75781,-0.74219 1.05469,0 1.79687,0.74219 0.74219,0.74218 0.74219,1.75781 v 35 q 0,1.01562 -0.74219,1.75781 z"
       style="font-style:normal;font-variant:normal;font-weight:normal;font-stretch:normal;font-size:40px;line-height:125%;font-family:WebHostingHub-Glyphs;-inkscape-font-specification:'WebHostingHub-Glyphs, Normal';font-variant-ligatures:normal;font-variant-caps:normal;font-variant-numeric:normal;font-feature-settings:normal;text-align:start;letter-spacing:0px;word-spacing:0px;writing-mode:lr-tb;text-anchor:start;display:inline;fill:#000000;fill-opacity:1;stroke:none;stroke-width:1px;stroke-linecap:butt;stroke-linejoin:miter;stroke-opacity:1"
       id="path4955-9" />
    <path
       inkscape:connector-curvature="0"
       d="m 651.34457,206.90255 q -0.74218,0.74219 -1.79687,0.74219 -1.01563,0 -1.75781,-0.70313 -0.70313,-0.74218 -0.70313,-1.79687 v -13.86719 q -2.34375,1.36719 -5,1.36719 h -10 q -4.14062,0 -7.07031,-2.92969 -2.92969,-2.92969 -2.92969,-7.07031 v -12.5 q 0,-1.01563 0.70313,-1.75781 0.74218,-0.74219 1.75781,-0.74219 1.05469,0 1.79687,0.74219 0.74219,0.74218 0.74219,1.75781 v 12.5 q 0,2.07031 1.44531,3.55469 1.48438,1.44531 3.55469,1.44531 h 10 q 2.07031,0 3.51563,-1.44531 1.48437,-1.48438 1.48437,-3.55469 v -12.5 q 0,-1.01563 0.70313,-1.75781 0.74218,-0.74219 1.75781,-0.74219 1.05469,0 1.79687,0.74219 0.74219,0.74218 0.74219,1.75781 v 35 q 0,1.01562 -0.74219,1.75781 z"
       style="font-style:normal;font-variant:normal;font-weight:normal;font-stretch:normal;font-size:40px;line-height:125%;font-family:WebHostingHub-Glyphs;-inkscape-font-specification:'WebHostingHub-Glyphs, Normal';font-variant-ligatures:normal;font-variant-caps:normal;font-variant-numeric:normal;font-feature-settings:normal;text-align:start;letter-spacing:0px;word-spacing:0px;writing-mode:lr-tb;text-anchor:start;display:inline;fill:#000000;fill-opacity:1;stroke:none;stroke-width:1px;stroke-linecap:butt;stroke-linejoin:miter;stroke-opacity:1"
       id="path4955-1" />
  </g>
  <g
     inkscape:groupmode="layer"
     id="layer3"
     inkscape:label="Side 1"
     transform="translate(1.0331581e-6,142.45044)"
     style="display:none">
    <text
       xml:space="preserve"
       style="font-size:24px;line-height:125%;font-family:sans-serif;-inkscape-font-specification:'sans-serif, Normal';letter-spacing:0px;word-spacing:0px;fill:#000000;stroke-width:1px"
       x="573.06378"
       y="143.3548"
       id="text1269"><tspan
         sodipodi:role="line"
         id="tspan1267"
         x="573.06378"
         y="143.3548">1</tspan></text>
    <g
       aria-label="3"
       transform="translate(-1.3927684e-6)"
       style="font-style:normal;font-weight:normal;font-size:40px;line-height:125%;font-family:sans-serif;letter-spacing:0px;word-spacing:0px;display:inline;fill:#000000;fill-opacity:1;stroke:none;stroke-width:1px;stroke-linecap:butt;stroke-linejoin:miter;stroke-opacity:1"
       id="text4887">
      <path
         d="m 274.13391,195.14551 v 2.5 q 0,4.14062 -2.92969,7.07031 -2.92968,2.92969 -7.07031,2.92969 h -10 q -4.14062,0 -7.07031,-2.92969 -2.92969,-2.92969 -2.92969,-7.07031 0,-1.01563 0.70313,-1.75781 0.74218,-0.74219 1.75781,-0.74219 1.05469,0 1.79687,0.74219 0.74219,0.74218 0.74219,1.75781 0,2.07031 1.44531,3.55469 1.48438,1.44531 3.55469,1.44531 h 10 q 2.07031,0 3.51563,-1.44531 1.48437,-1.48438 1.48437,-3.55469 v -2.5 q 0,-2.07031 -1.48437,-3.51563 -1.44532,-1.48437 -3.51563,-1.48437 h -2.5 q -1.05469,0 -1.79687,-0.70313 -0.70313,-0.74218 -0.70313,-1.75781 0,-1.05469 0.70313,-1.79687 0.74218,-0.74219 1.79687,-0.74219 h 2.5 q 2.07031,0 3.51563,-1.44531 1.48437,-1.48438 1.48437,-3.55469 v -2.5 q 0,-2.07031 -1.48437,-3.51563 -1.44532,-1.48437 -3.51563,-1.48437 h -10 q -2.07031,0 -3.55469,1.48437 -1.44531,1.44532 -1.44531,3.51563 0,1.05469 -0.74219,1.79687 -0.74218,0.70313 -1.79687,0.70313 -1.01563,0 -1.75781,-0.70313 -0.70313,-0.74218 -0.70313,-1.79687 0,-4.14063 2.92969,-7.07031 2.92969,-2.92969 7.07031,-2.92969 h 10 q 4.14063,0 7.07031,2.92969 2.92969,2.92968 2.92969,7.07031 v 2.5 q 0,2.1875 -0.9375,4.14062 -0.89844,1.95313 -2.46094,3.35938 1.5625,1.40625 2.46094,3.35937 0.9375,1.95313 0.9375,4.14063 z"
         style="font-style:normal;font-variant:normal;font-weight:normal;font-stretch:normal;font-size:40px;font-family:WebHostingHub-Glyphs;-inkscape-font-specification:'WebHostingHub-Glyphs, Normal';font-variant-ligatures:normal;font-variant-caps:normal;font-variant-numeric:normal;font-feature-settings:normal;text-align:start;writing-mode:lr-tb;text-anchor:start"
         id="path5006"
         inkscape:connector-curvature="0" />
    </g>
    <g
       aria-label="3"
       transform="translate(-1.3927684e-6)"
       style="font-style:normal;font-weight:normal;font-size:40px;line-height:125%;font-family:sans-serif;letter-spacing:0px;word-spacing:0px;display:inline;fill:#000000;fill-opacity:1;stroke:none;stroke-width:1px;stroke-linecap:butt;stroke-linejoin:miter;stroke-opacity:1"
       id="text4887-1">
      <path
         d="m 349.72455,195.14473 v 2.5 q 0,4.14062 -2.92969,7.07031 -2.92969,2.92969 -7.07031,2.92969 h -10 q -4.14063,0 -7.07031,-2.92969 -2.92969,-2.92969 -2.92969,-7.07031 0,-1.01563 0.70312,-1.75781 0.74219,-0.74219 1.75782,-0.74219 1.05468,0 1.79687,0.74219 0.74219,0.74218 0.74219,1.75781 0,2.07031 1.44531,3.55469 1.48438,1.44531 3.55469,1.44531 h 10 q 2.07031,0 3.51562,-1.44531 1.48438,-1.48438 1.48438,-3.55469 v -2.5 q 0,-2.07031 -1.48438,-3.51563 -1.44531,-1.48437 -3.51562,-1.48437 h -2.5 q -1.05469,0 -1.79688,-0.70313 -0.70312,-0.74218 -0.70312,-1.75781 0,-1.05469 0.70312,-1.79687 0.74219,-0.74219 1.79688,-0.74219 h 2.5 q 2.07031,0 3.51562,-1.44531 1.48438,-1.48438 1.48438,-3.55469 v -2.5 q 0,-2.07031 -1.48438,-3.51563 -1.44531,-1.48437 -3.51562,-1.48437 h -10 q -2.07031,0 -3.55469,1.48437 -1.44531,1.44532 -1.44531,3.51563 0,1.05469 -0.74219,1.79687 -0.74219,0.70313 -1.79687,0.70313 -1.01563,0 -1.75782,-0.70313 -0.70312,-0.74218 -0.70312,-1.79687 0,-4.14063 2.92969,-7.07031 2.92968,-2.92969 7.07031,-2.92969 h 10 q 4.14062,0 7.07031,2.92969 2.92969,2.92968 2.92969,7.07031 v 2.5 q 0,2.1875 -0.9375,4.14062 -0.89844,1.95313 -2.46094,3.35938 1.5625,1.40625 2.46094,3.35937 0.9375,1.95313 0.9375,4.14063 z"
         style="font-style:normal;font-variant:normal;font-weight:normal;font-stretch:normal;font-size:40px;font-family:WebHostingHub-Glyphs;-inkscape-font-specification:'WebHostingHub-Glyphs, Normal';font-variant-ligatures:normal;font-variant-caps:normal;font-variant-numeric:normal;font-feature-settings:normal;text-align:start;writing-mode:lr-tb;text-anchor:start"
         id="path5009"
         inkscape:connector-curvature="0" />
    </g>
    <g
       aria-label="3"
       transform="translate(-1.3927684e-6)"
       style="font-style:normal;font-weight:normal;font-size:40px;line-height:125%;font-family:sans-serif;letter-spacing:0px;word-spacing:0px;display:inline;fill:#000000;fill-opacity:1;stroke:none;stroke-width:1px;stroke-linecap:butt;stroke-linejoin:miter;stroke-opacity:1"
       id="text4887-5">
      <path
         d="m 425.31494,195.14471 v 2.5 q 0,4.14063 -2.92969,7.07032 -2.92968,2.92968 -7.07031,2.92968 h -10 q -4.14062,0 -7.07031,-2.92968 -2.92969,-2.92969 -2.92969,-7.07032 0,-1.01562 0.70313,-1.75781 0.74218,-0.74219 1.75781,-0.74219 1.05469,0 1.79687,0.74219 0.74219,0.74219 0.74219,1.75781 0,2.07032 1.44531,3.55469 1.48438,1.44531 3.55469,1.44531 h 10 q 2.07031,0 3.51563,-1.44531 1.48437,-1.48437 1.48437,-3.55469 v -2.5 q 0,-2.07031 -1.48437,-3.51562 -1.44532,-1.48438 -3.51563,-1.48438 h -2.5 q -1.05469,0 -1.79687,-0.70312 -0.70313,-0.74219 -0.70313,-1.75781 0,-1.05469 0.70313,-1.79688 0.74218,-0.74219 1.79687,-0.74219 h 2.5 q 2.07031,0 3.51563,-1.44531 1.48437,-1.48437 1.48437,-3.55469 v -2.5 q 0,-2.07031 -1.48437,-3.51562 -1.44532,-1.48438 -3.51563,-1.48438 h -10 q -2.07031,0 -3.55469,1.48438 -1.44531,1.44531 -1.44531,3.51562 0,1.05469 -0.74219,1.79688 -0.74218,0.70312 -1.79687,0.70312 -1.01563,0 -1.75781,-0.70312 -0.70313,-0.74219 -0.70313,-1.79688 0,-4.14062 2.92969,-7.07031 2.92969,-2.92969 7.07031,-2.92969 h 10 q 4.14063,0 7.07031,2.92969 2.92969,2.92969 2.92969,7.07031 v 2.5 q 0,2.1875 -0.9375,4.14063 -0.89844,1.95312 -2.46094,3.35937 1.5625,1.40625 2.46094,3.35938 0.9375,1.95312 0.9375,4.14062 z"
         style="font-style:normal;font-variant:normal;font-weight:normal;font-stretch:normal;font-size:40px;font-family:WebHostingHub-Glyphs;-inkscape-font-specification:'WebHostingHub-Glyphs, Normal';font-variant-ligatures:normal;font-variant-caps:normal;font-variant-numeric:normal;font-feature-settings:normal;text-align:start;writing-mode:lr-tb;text-anchor:start"
         id="path5012"
         inkscape:connector-curvature="0" />
    </g>
    <g
       aria-label="3"
       transform="translate(-1.3927684e-6)"
       style="font-style:normal;font-weight:normal;font-size:40px;line-height:125%;font-family:sans-serif;letter-spacing:0px;word-spacing:0px;display:inline;fill:#000000;fill-opacity:1;stroke:none;stroke-width:1px;stroke-linecap:butt;stroke-linejoin:miter;stroke-opacity:1"
       id="text4887-19">
      <path
         d="m 500.90564,195.14473 v 2.5 q 0,4.14062 -2.92969,7.07031 -2.92969,2.92969 -7.07031,2.92969 h -10 q -4.14063,0 -7.07031,-2.92969 -2.92969,-2.92969 -2.92969,-7.07031 0,-1.01563 0.70312,-1.75781 0.74219,-0.74219 1.75782,-0.74219 1.05468,0 1.79687,0.74219 0.74219,0.74218 0.74219,1.75781 0,2.07031 1.44531,3.55469 1.48438,1.44531 3.55469,1.44531 h 10 q 2.07031,0 3.51562,-1.44531 1.48438,-1.48438 1.48438,-3.55469 v -2.5 q 0,-2.07031 -1.48438,-3.51563 -1.44531,-1.48437 -3.51562,-1.48437 h -2.5 q -1.05469,0 -1.79688,-0.70313 -0.70312,-0.74218 -0.70312,-1.75781 0,-1.05469 0.70312,-1.79687 0.74219,-0.74219 1.79688,-0.74219 h 2.5 q 2.07031,0 3.51562,-1.44531 1.48438,-1.48438 1.48438,-3.55469 v -2.5 q 0,-2.07031 -1.48438,-3.51563 -1.44531,-1.48437 -3.51562,-1.48437 h -10 q -2.07031,0 -3.55469,1.48437 -1.44531,1.44532 -1.44531,3.51563 0,1.05469 -0.74219,1.79687 -0.74219,0.70313 -1.79687,0.70313 -1.01563,0 -1.75782,-0.70313 -0.70312,-0.74218 -0.70312,-1.79687 0,-4.14063 2.92969,-7.07031 2.92968,-2.92969 7.07031,-2.92969 h 10 q 4.14062,0 7.07031,2.92969 2.92969,2.92968 2.92969,7.07031 v 2.5 q 0,2.1875 -0.9375,4.14062 -0.89844,1.95313 -2.46094,3.35938 1.5625,1.40625 2.46094,3.35937 0.9375,1.95313 0.9375,4.14063 z"
         style="font-style:normal;font-variant:normal;font-weight:normal;font-stretch:normal;font-size:40px;font-family:WebHostingHub-Glyphs;-inkscape-font-specification:'WebHostingHub-Glyphs, Normal';font-variant-ligatures:normal;font-variant-caps:normal;font-variant-numeric:normal;font-feature-settings:normal;text-align:start;writing-mode:lr-tb;text-anchor:start"
         id="path5015"
         inkscape:connector-curvature="0" />
    </g>
    <g
       aria-label="3"
       transform="translate(-1.3927684e-6)"
       style="font-style:normal;font-weight:normal;font-size:40px;line-height:125%;font-family:sans-serif;letter-spacing:0px;word-spacing:0px;display:inline;fill:#000000;fill-opacity:1;stroke:none;stroke-width:1px;stroke-linecap:butt;stroke-linejoin:miter;stroke-opacity:1"
       id="text4887-10">
      <path
         d="m 576.49622,195.14473 v 2.5 q 0,4.14062 -2.92969,7.07031 -2.92969,2.92969 -7.07031,2.92969 h -10 q -4.14063,0 -7.07032,-2.92969 -2.92968,-2.92969 -2.92968,-7.07031 0,-1.01563 0.70312,-1.75781 0.74219,-0.74219 1.75781,-0.74219 1.05469,0 1.79688,0.74219 0.74219,0.74218 0.74219,1.75781 0,2.07031 1.44531,3.55469 1.48437,1.44531 3.55469,1.44531 h 10 q 2.07031,0 3.51562,-1.44531 1.48438,-1.48438 1.48438,-3.55469 v -2.5 q 0,-2.07031 -1.48438,-3.51563 -1.44531,-1.48437 -3.51562,-1.48437 h -2.5 q -1.05469,0 -1.79688,-0.70313 -0.70312,-0.74218 -0.70312,-1.75781 0,-1.05469 0.70312,-1.79687 0.74219,-0.74219 1.79688,-0.74219 h 2.5 q 2.07031,0 3.51562,-1.44531 1.48438,-1.48438 1.48438,-3.55469 v -2.5 q 0,-2.07031 -1.48438,-3.51563 -1.44531,-1.48437 -3.51562,-1.48437 h -10 q -2.07032,0 -3.55469,1.48437 -1.44531,1.44532 -1.44531,3.51563 0,1.05469 -0.74219,1.79687 -0.74219,0.70313 -1.79688,0.70313 -1.01562,0 -1.75781,-0.70313 -0.70312,-0.74218 -0.70312,-1.79687 0,-4.14063 2.92968,-7.07031 2.92969,-2.92969 7.07032,-2.92969 h 10 q 4.14062,0 7.07031,2.92969 2.92969,2.92968 2.92969,7.07031 v 2.5 q 0,2.1875 -0.9375,4.14062 -0.89844,1.95313 -2.46094,3.35938 1.5625,1.40625 2.46094,3.35937 0.9375,1.95313 0.9375,4.14063 z"
         style="font-style:normal;font-variant:normal;font-weight:normal;font-stretch:normal;font-size:40px;font-family:WebHostingHub-Glyphs;-inkscape-font-specification:'WebHostingHub-Glyphs, Normal';font-variant-ligatures:normal;font-variant-caps:normal;font-variant-numeric:normal;font-feature-settings:normal;text-align:start;writing-mode:lr-tb;text-anchor:start"
         id="path5018"
         inkscape:connector-curvature="0" />
    </g>
    <g
       aria-label="3"
       transform="translate(-1.3927684e-6)"
       style="font-style:normal;font-weight:normal;font-size:40px;line-height:125%;font-family:sans-serif;letter-spacing:0px;word-spacing:0px;display:inline;fill:#000000;fill-opacity:1;stroke:none;stroke-width:1px;stroke-linecap:butt;stroke-linejoin:miter;stroke-opacity:1"
       id="text4887-9">
      <path
         d="m 652.08673,195.14473 v 2.5 q 0,4.14062 -2.92969,7.07031 -2.92968,2.92969 -7.07031,2.92969 h -10 q -4.14062,0 -7.07031,-2.92969 -2.92969,-2.92969 -2.92969,-7.07031 0,-1.01563 0.70313,-1.75781 0.74218,-0.74219 1.75781,-0.74219 1.05469,0 1.79687,0.74219 0.74219,0.74218 0.74219,1.75781 0,2.07031 1.44531,3.55469 1.48438,1.44531 3.55469,1.44531 h 10 q 2.07031,0 3.51563,-1.44531 1.48437,-1.48438 1.48437,-3.55469 v -2.5 q 0,-2.07031 -1.48437,-3.51563 -1.44532,-1.48437 -3.51563,-1.48437 h -2.5 q -1.05469,0 -1.79687,-0.70313 -0.70313,-0.74218 -0.70313,-1.75781 0,-1.05469 0.70313,-1.79687 0.74218,-0.74219 1.79687,-0.74219 h 2.5 q 2.07031,0 3.51563,-1.44531 1.48437,-1.48438 1.48437,-3.55469 v -2.5 q 0,-2.07031 -1.48437,-3.51563 -1.44532,-1.48437 -3.51563,-1.48437 h -10 q -2.07031,0 -3.55469,1.48437 -1.44531,1.44532 -1.44531,3.51563 0,1.05469 -0.74219,1.79687 -0.74218,0.70313 -1.79687,0.70313 -1.01563,0 -1.75781,-0.70313 -0.70313,-0.74218 -0.70313,-1.79687 0,-4.14063 2.92969,-7.07031 2.92969,-2.92969 7.07031,-2.92969 h 10 q 4.14063,0 7.07031,2.92969 2.92969,2.92968 2.92969,7.07031 v 2.5 q 0,2.1875 -0.9375,4.14062 -0.89844,1.95313 -2.46094,3.35938 1.5625,1.40625 2.46094,3.35937 0.9375,1.95313 0.9375,4.14063 z"
         style="font-style:normal;font-variant:normal;font-weight:normal;font-stretch:normal;font-size:40px;font-family:WebHostingHub-Glyphs;-inkscape-font-specification:'WebHostingHub-Glyphs, Normal';font-variant-ligatures:normal;font-variant-caps:normal;font-variant-numeric:normal;font-feature-settings:normal;text-align:start;writing-mode:lr-tb;text-anchor:start"
         id="path5021"
         inkscape:connector-curvature="0" />
    </g>
  </g>
  <g
     inkscape:groupmode="layer"
     id="layer2"
     inkscape:label="Template-Cut"
     transform="translate(1.0331581e-6,142.45044)"
     style="display:inline">
    <g
       style="fill:none;stroke:#ff0000;stroke-width:0.14468752"
       transform="matrix(1.3290953,0,0,-1.3290932,-125.46649,615.99355)"
       id="Graphic_5-7"
       inkscape:transform-center-x="58.915977"
       inkscape:transform-center-y="-106.77704">
      <rect
         style="stroke-linecap:round;stroke-linejoin:round"
         id="rect15-9"
         height="45.354328"
         width="45.354328"
         y="299.60876"
         x="266.6929" />
    </g>
    <g
       style="fill:none;stroke:#ff0000;stroke-width:0.14468752"
       transform="matrix(1.3290996,0,0,-1.3291272,-49.877087,616.00373)"
       id="Graphic_5-7-3">
      <rect
         style="stroke-linecap:round;stroke-linejoin:round"
         id="rect15-9-8"
         height="45.354328"
         width="45.354328"
         y="299.60876"
         x="266.6929" />
    </g>
    <g
       style="fill:none;stroke:#ff0000;stroke-width:0.14468752"
       transform="matrix(1.3290932,0,0,-1.3291274,25.715169,616.00378)"
       id="Graphic_5-7-3-0">
      <rect
         style="stroke-linecap:round;stroke-linejoin:round"
         id="rect15-9-8-2"
         height="45.354328"
         width="45.354328"
         y="299.60876"
         x="266.6929" />
    </g>
    <g
       style="fill:none;stroke:#ff0000;stroke-width:0.14468752"
       transform="matrix(1.3290996,0,0,-1.3291272,101.30401,616.00373)"
       id="Graphic_5-7-3-0-4">
      <rect
         style="stroke-linecap:round;stroke-linejoin:round"
         id="rect15-9-8-2-8"
         height="45.354328"
         width="45.354328"
         y="299.60876"
         x="266.6929" />
    </g>
    <g
       style="fill:none;stroke:#ff0000;stroke-width:0.14468752"
       transform="matrix(1.3290996,0,0,-1.3291272,176.89457,616.00373)"
       id="Graphic_5-7-3-0-4-3">
      <rect
         style="stroke-linecap:round;stroke-linejoin:round"
         id="rect15-9-8-2-8-9"
         height="45.354328"
         width="45.354328"
         y="299.60876"
         x="266.6929" />
    </g>
    <g
       style="fill:none;stroke:#ff0000;stroke-width:0.14468752"
       transform="matrix(1.3290996,0,0,-1.3291272,252.48512,616.00373)"
       id="Graphic_5-7-3-0-4-3-7">
      <rect
         style="stroke-linecap:round;stroke-linejoin:round"
         id="rect15-9-8-2-8-9-9"
         height="45.354328"
         width="45.354328"
         y="299.60876"
         x="266.6929" />
    </g>
  </g>
  <g
     inkscape:groupmode="layer"
     id="layer1"
     inkscape:label="Template-Etch"
     transform="translate(-37.295264,119.44132)"
     style="display:inline"
     sodipodi:insensitive="true">
    <text
       xml:space="preserve"
       style="font-size:40px;line-height:125%;font-family:WebHostingHub-Glyphs;-inkscape-font-specification:WebHostingHub-Glyphs;letter-spacing:0px;word-spacing:0px;fill:#000000;stroke-width:1px"
       x="266.28665"
       y="166.76881"
       id="text1265"><tspan
         sodipodi:role="line"
         id="tspan1263"
         x="266.28665"
         y="166.76881"
         style="font-size:32px;font-family:sans-serif;-inkscape-font-specification:'sans-serif, Normal'">Troop 349 Dice</tspan></text>
    <flowRoot
       xml:space="preserve"
       id="flowRoot2170"
       style="font-size:40px;line-height:125%;font-family:sans-serif;-inkscape-font-specification:'sans-serif, Normal';letter-spacing:0px;word-spacing:0px;fill:#000000;stroke-width:1px"
       transform="translate(247.29526,266.00911)"><flowRegion
         id="flowRegion2172"><rect
           id="rect2174"
           width="550.99689"
           height="114.65831"
           x="-3.7157784"
           y="109.5831" /></flowRegion><flowPara
         id="flowPara2176" /></flowRoot>  </g>
  <style
     id="style4245"
     type="text/css">
	.st0{stroke:#231815;stroke-width:9.2807;stroke-linecap:round;stroke-miterlimit:10;}
</style>
</svg>
